<svg id="visual" viewBox="0 0 900 450" width="900" height="450" xmlns="http://www.w3.org/2000/svg" xmlns:xlink="http://www.w3.org/1999/xlink" version="1.1"><path d="M0 277L21.5 283.3C43 289.7 86 302.3 128.8 307.3C171.7 312.3 214.3 309.7 257.2 310.2C300 310.7 343 314.3 385.8 306.8C428.7 299.3 471.3 280.7 514.2 269.5C557 258.3 600 254.7 642.8 258.3C685.7 262 728.3 273 771.2 274.5C814 276 857 268 878.5 264L900 260L900 451L878.5 451C857 451 814 451 771.2 451C728.3 451 685.7 451 642.8 451C600 451 557 451 514.2 451C471.3 451 428.7 451 385.8 451C343 451 300 451 257.2 451C214.3 451 171.7 451 128.8 451C86 451 43 451 21.5 451L0 451Z" fill="#f7caca"></path><path d="M0 348L21.5 351.2C43 354.3 86 360.7 128.8 351.3C171.7 342 214.3 317 257.2 304.7C300 292.3 343 292.7 385.8 295.8C428.7 299 471.3 305 514.2 311.5C557 318 600 325 642.8 323.8C685.7 322.7 728.3 313.3 771.2 315.7C814 318 857 332 878.5 339L900 346L900 451L878.5 451C857 451 814 451 771.2 451C728.3 451 685.7 451 642.8 451C600 451 557 451 514.2 451C471.3 451 428.7 451 385.8 451C343 451 300 451 257.2 451C214.3 451 171.7 451 128.8 451C86 451 43 451 21.5 451L0 451Z" fill="#ecadb7"></path><path d="M0 393L21.5 390C43 387 86 381 128.8 382.2C171.7 383.3 214.3 391.7 257.2 395.5C300 399.3 343 398.7 385.8 393.2C428.7 387.7 471.3 377.3 514.2 372.7C557 368 600 369 642.8 366.8C685.7 364.7 728.3 359.3 771.2 361.8C814 364.3 857 374.7 878.5 379.8L900 385L900 451L878.5 451C857 451 814 451 771.2 451C728.3 451 685.7 451 642.8 451C600 451 557 451 514.2 451C471.3 451 428.7 451 385.8 451C343 451 300 451 257.2 451C214.3 451 171.7 451 128.8 451C86 451 43 451 21.5 451L0 451Z" fill="#de90aa"></path></svg>