<svg id="visual" viewBox="0 0 900 450" width="900" height="450" xmlns="http://www.w3.org/2000/svg" xmlns:xlink="http://www.w3.org/1999/xlink" version="1.1"><path d="M0 105L13.7 113.2C27.3 121.3 54.7 137.7 82 148.2C109.3 158.7 136.7 163.3 163.8 165.7C191 168 218 168 245.2 154.5C272.3 141 299.7 114 327 98.2C354.3 82.3 381.7 77.7 409 76.2C436.3 74.7 463.7 76.3 491 87.7C518.3 99 545.7 120 573 150C600.3 180 627.7 219 654.8 210.7C682 202.3 709 146.7 736.2 121.2C763.3 95.7 790.7 100.3 818 103.3C845.3 106.3 872.7 107.7 886.3 108.3L900 109L900 0L886.3 0C872.7 0 845.3 0 818 0C790.7 0 763.3 0 736.2 0C709 0 682 0 654.8 0C627.7 0 600.3 0 573 0C545.7 0 518.3 0 491 0C463.7 0 436.3 0 409 0C381.7 0 354.3 0 327 0C299.7 0 272.3 0 245.2 0C218 0 191 0 163.8 0C136.7 0 109.3 0 82 0C54.7 0 27.3 0 13.7 0L0 0Z" fill="#de90aa"></path><path d="M0 271L13.7 265C27.3 259 54.7 247 82 252.3C109.3 257.7 136.7 280.3 163.8 280.3C191 280.3 218 257.7 245.2 251.7C272.3 245.7 299.7 256.3 327 260.8C354.3 265.3 381.7 263.7 409 262.2C436.3 260.7 463.7 259.3 491 253.3C518.3 247.3 545.7 236.7 573 250.8C600.3 265 627.7 304 654.8 310.8C682 317.7 709 292.3 736.2 274.3C763.3 256.3 790.7 245.7 818 236.7C845.3 227.7 872.7 220.3 886.3 216.7L900 213L900 107L886.3 106.3C872.7 105.7 845.3 104.3 818 101.3C790.7 98.3 763.3 93.7 736.2 119.2C709 144.7 682 200.3 654.8 208.7C627.7 217 600.3 178 573 148C545.7 118 518.3 97 491 85.7C463.7 74.3 436.3 72.7 409 74.2C381.7 75.7 354.3 80.3 327 96.2C299.7 112 272.3 139 245.2 152.5C218 166 191 166 163.8 163.7C136.7 161.3 109.3 156.7 82 146.2C54.7 135.7 27.3 119.3 13.7 111.2L0 103Z" fill="#db809f"></path><path d="M0 352L13.7 347.5C27.3 343 54.7 334 82 334.8C109.3 335.7 136.7 346.3 163.8 349.3C191 352.3 218 347.7 245.2 342.3C272.3 337 299.7 331 327 327.3C354.3 323.7 381.7 322.3 409 330.7C436.3 339 463.7 357 491 359.2C518.3 361.3 545.7 347.7 573 349.8C600.3 352 627.7 370 654.8 375.3C682 380.7 709 373.3 736.2 362.8C763.3 352.3 790.7 338.7 818 332.7C845.3 326.7 872.7 328.3 886.3 329.2L900 330L900 211L886.3 214.7C872.7 218.3 845.3 225.7 818 234.7C790.7 243.7 763.3 254.3 736.2 272.3C709 290.3 682 315.7 654.8 308.8C627.7 302 600.3 263 573 248.8C545.7 234.7 518.3 245.3 491 251.3C463.7 257.3 436.3 258.7 409 260.2C381.7 261.7 354.3 263.3 327 258.8C299.7 254.3 272.3 243.7 245.2 249.7C218 255.7 191 278.3 163.8 278.3C136.7 278.3 109.3 255.7 82 250.3C54.7 245 27.3 257 13.7 263L0 269Z" fill="#d87094"></path><path d="M0 424L13.7 416.5C27.3 409 54.7 394 82 391.8C109.3 389.7 136.7 400.3 163.8 404.8C191 409.3 218 407.7 245.2 404.7C272.3 401.7 299.7 397.3 327 398.8C354.3 400.3 381.7 407.7 409 410.7C436.3 413.7 463.7 412.3 491 413.8C518.3 415.3 545.7 419.7 573 421.8C600.3 424 627.7 424 654.8 420.3C682 416.7 709 409.3 736.2 405.7C763.3 402 790.7 402 818 400.5C845.3 399 872.7 396 886.3 394.5L900 393L900 328L886.3 327.2C872.7 326.3 845.3 324.7 818 330.7C790.7 336.7 763.3 350.3 736.2 360.8C709 371.3 682 378.7 654.8 373.3C627.7 368 600.3 350 573 347.8C545.7 345.7 518.3 359.3 491 357.2C463.7 355 436.3 337 409 328.7C381.7 320.3 354.3 321.7 327 325.3C299.7 329 272.3 335 245.2 340.3C218 345.7 191 350.3 163.8 347.3C136.7 344.3 109.3 333.7 82 332.8C54.7 332 27.3 341 13.7 345.5L0 350Z" fill="#d45f89"></path><path d="M0 451L13.7 451C27.3 451 54.7 451 82 451C109.3 451 136.7 451 163.8 451C191 451 218 451 245.2 451C272.3 451 299.7 451 327 451C354.3 451 381.7 451 409 451C436.3 451 463.7 451 491 451C518.3 451 545.7 451 573 451C600.3 451 627.7 451 654.8 451C682 451 709 451 736.2 451C763.3 451 790.7 451 818 451C845.3 451 872.7 451 886.3 451L900 451L900 391L886.3 392.5C872.7 394 845.3 397 818 398.5C790.7 400 763.3 400 736.2 403.7C709 407.3 682 414.7 654.8 418.3C627.7 422 600.3 422 573 419.8C545.7 417.7 518.3 413.3 491 411.8C463.7 410.3 436.3 411.7 409 408.7C381.7 405.7 354.3 398.3 327 396.8C299.7 395.3 272.3 399.7 245.2 402.7C218 405.7 191 407.3 163.8 402.8C136.7 398.3 109.3 387.7 82 389.8C54.7 392 27.3 407 13.7 414.5L0 422Z" fill="#d04c7f"></path></svg>