<svg id="visual" viewBox="0 0 900 450" width="900" height="450" xmlns="http://www.w3.org/2000/svg" xmlns:xlink="http://www.w3.org/1999/xlink" version="1.1"><rect x="0" y="0" width="900" height="450" fill="#6165b8"></rect><path d="M0 88L16.7 90.7C33.3 93.3 66.7 98.7 100 95.7C133.3 92.7 166.7 81.3 200 78.8C233.3 76.3 266.7 82.7 300 80.2C333.3 77.7 366.7 66.3 400 70C433.3 73.7 466.7 92.3 500 102.2C533.3 112 566.7 113 600 115.3C633.3 117.7 666.7 121.3 700 114.2C733.3 107 766.7 89 800 90.2C833.3 91.3 866.7 111.7 883.3 121.8L900 132L900 0L883.3 0C866.7 0 833.3 0 800 0C766.7 0 733.3 0 700 0C666.7 0 633.3 0 600 0C566.7 0 533.3 0 500 0C466.7 0 433.3 0 400 0C366.7 0 333.3 0 300 0C266.7 0 233.3 0 200 0C166.7 0 133.3 0 100 0C66.7 0 33.3 0 16.7 0L0 0Z" fill="#d04c7f" stroke-linecap="round" stroke-linejoin="miter"></path></svg>